<svg viewBox="0 0 280 280" fill="none" xmlns="http://www.w3.org/2000/svg">
  <path d="M140 40C140 40 80 55 80 80V150C80 195 140 230 140 230C140 230 200 195 200 150V80C200 55 140 40 140 40Z" stroke="#00F5D4" stroke-width="2" fill="#00F5D4" fill-opacity="0.04"/>
  <path d="M115 130 Q140 110 165 130" stroke="#00F5D4" stroke-width="1.5" fill="none" stroke-linecap="round"/>
  <path d="M105 145 Q140 115 175 145" stroke="#00F5D4" stroke-width="1.5" fill="none" stroke-linecap="round" stroke-opacity="0.7"/>
  <path d="M115 160 Q140 140 165 160" stroke="#00F5D4" stroke-width="1.5" fill="none" stroke-linecap="round"/>
  <path d="M125 175 Q140 165 155 175" stroke="#00F5D4" stroke-width="1.5" fill="none" stroke-linecap="round" stroke-opacity="0.7"/>
  <circle cx="140" cy="155" r="3" fill="#00F5D4"/>
  <circle cx="190" cy="80" r="20" fill="#0A0A0A" stroke="#00F5D4" stroke-width="2"/>
  <path d="M180 80 L188 88 L200 74" stroke="#00F5D4" stroke-width="2.5" stroke-linecap="round" stroke-linejoin="round" fill="none"/>
</svg>
