<svg viewBox="0 0 280 280" fill="none" xmlns="http://www.w3.org/2000/svg">
  <circle cx="140" cy="140" r="120" stroke="#1F1F1F" stroke-width="1"/>
  <circle cx="140" cy="140" r="90" stroke="#1F1F1F" stroke-width="1"/>
  <circle cx="140" cy="140" r="60" stroke="#1F1F1F" stroke-width="1"/>
  <rect x="55" y="105" width="60" height="70" rx="6" stroke="#00F5D4" stroke-width="2" fill="#00F5D4" fill-opacity="0.08"/>
  <rect x="63" y="120" width="44" height="20" rx="2" fill="#00F5D4" fill-opacity="0.4"/>
  <line x1="63" y1="135" x2="107" y2="135" stroke="#00F5D4" stroke-width="1" stroke-opacity="0.6"/>
  <line x1="85" y1="120" x2="85" y2="155" stroke="#00F5D4" stroke-width="1" stroke-opacity="0.6"/>
  <line x1="63" y1="155" x2="107" y2="155" stroke="#00F5D4" stroke-width="1" stroke-opacity="0.6"/>
  <rect x="165" y="105" width="60" height="70" rx="6" stroke="#FF4D4D" stroke-width="2" fill="#FF4D4D" fill-opacity="0.05" stroke-dasharray="4 4"/>
  <rect x="173" y="120" width="44" height="20" rx="2" fill="#FF4D4D" fill-opacity="0.3"/>
  <line x1="173" y1="135" x2="217" y2="135" stroke="#FF4D4D" stroke-width="1" stroke-opacity="0.5"/>
  <line x1="195" y1="120" x2="195" y2="155" stroke="#FF4D4D" stroke-width="1" stroke-opacity="0.5"/>
  <line x1="173" y1="155" x2="217" y2="155" stroke="#FF4D4D" stroke-width="1" stroke-opacity="0.5"/>
  <path d="M120 135 L160 135" stroke="#A3A3A3" stroke-width="1.5" stroke-dasharray="3 3"/>
  <path d="M120 145 L160 145" stroke="#A3A3A3" stroke-width="1.5" stroke-dasharray="3 3"/>
  <line x1="40" y1="210" x2="240" y2="210" stroke="#00F5D4" stroke-width="1" stroke-opacity="0.4"/>
  <circle cx="140" cy="210" r="4" fill="#00F5D4"/>
</svg>
