<svg viewBox="0 0 280 280" fill="none" xmlns="http://www.w3.org/2000/svg">
  <path d="M140 40L220 90V190L140 240L60 190V90L140 40Z" stroke="#1F1F1F" stroke-width="1"/>
  <path d="M140 70L195 105V175L140 210L85 175V105L140 70Z" stroke="#1F1F1F" stroke-width="1"/>
  <circle cx="140" cy="140" r="36" stroke="#00F5D4" stroke-width="2" fill="#00F5D4" fill-opacity="0.06"/>
  <circle cx="140" cy="140" r="6" fill="#00F5D4"/>
  <path d="M115 140 L122 140 L125 130 L130 150 L135 125 L140 155 L145 130 L150 145 L155 140 L162 140" stroke="#00F5D4" stroke-width="1.5" stroke-linecap="round" stroke-linejoin="round" fill="none"/>
  <circle cx="60" cy="90" r="3" fill="#00F5D4" fill-opacity="0.6"/>
  <circle cx="220" cy="90" r="3" fill="#00F5D4" fill-opacity="0.6"/>
  <circle cx="60" cy="190" r="3" fill="#00F5D4" fill-opacity="0.6"/>
  <circle cx="220" cy="190" r="3" fill="#00F5D4" fill-opacity="0.6"/>
  <line x1="115" y1="125" x2="80" y2="100" stroke="#00F5D4" stroke-width="1" stroke-opacity="0.3"/>
  <line x1="165" y1="125" x2="200" y2="100" stroke="#00F5D4" stroke-width="1" stroke-opacity="0.3"/>
  <line x1="115" y1="155" x2="80" y2="180" stroke="#00F5D4" stroke-width="1" stroke-opacity="0.3"/>
  <line x1="165" y1="155" x2="200" y2="180" stroke="#00F5D4" stroke-width="1" stroke-opacity="0.3"/>
</svg>
